<svg xmlns="http://www.w3.org/2000/svg" xmlns:xlink="http://www.w3.org/1999/xlink" width="500" zoomAndPan="magnify" viewBox="0 0 375 374.999991" height="500" preserveAspectRatio="xMidYMid meet" version="1.0"><defs><clipPath id="9ee6c9face"><path d="M 273 84 L 352.429688 84 L 352.429688 185 L 273 185 Z M 273 84 " clip-rule="nonzero"/></clipPath></defs><path fill="#41362f" d="M 201.554688 338.511719 C 190.382812 343.558594 178.667969 348.242188 166.59375 348.785156 C 154.339844 349.324219 141.367188 345.179688 133.976562 335.449219 C 126.949219 326.257812 125.867188 314.003906 125.6875 302.289062 C 125.148438 270.933594 129.472656 237.957031 147.851562 212.546875 C 163.710938 190.5625 189.121094 176.324219 215.972656 172.359375 C 242.824219 168.394531 270.574219 174.34375 294.363281 187.496094 C 310.039062 196.148438 324.457031 208.402344 331.84375 224.800781 C 334.367188 230.386719 335.992188 236.335938 335.449219 242.460938 C 334.730469 253.273438 327.699219 262.464844 319.953125 270.03125 C 301.929688 287.511719 279.40625 298.144531 257.417969 309.679688 C 238.679688 319.230469 220.65625 329.863281 201.554688 338.511719 Z M 201.554688 338.511719 " fill-opacity="1" fill-rule="nonzero"/><path fill="#41362f" d="M 50.902344 258.140625 C 58.832031 262.464844 68.203125 264.808594 77.03125 263.546875 C 83.339844 262.644531 89.285156 260.121094 94.871094 257.417969 C 104.785156 252.734375 115.054688 246.785156 119.378906 236.695312 C 122.082031 230.566406 122.082031 223.539062 121.003906 216.871094 C 116.675781 187.679688 91.808594 169.476562 62.613281 170.199219 C 38.648438 170.738281 22.429688 200.113281 25.492188 221.917969 C 27.65625 237.054688 37.566406 250.929688 50.902344 258.140625 Z M 50.902344 258.140625 " fill-opacity="1" fill-rule="nonzero"/><path fill="#41362f" d="M 79.554688 140.464844 C 88.023438 162.988281 111.089844 179.027344 135.417969 180.648438 C 145.148438 181.371094 155.421875 179.570312 162.8125 173.441406 C 171.460938 166.414062 174.882812 154.339844 174.164062 143.167969 C 173.261719 131.992188 168.757812 121.542969 163.710938 111.628906 C 157.585938 99.554688 150.195312 87.664062 139.382812 79.554688 C 98.476562 49.097656 65.859375 103.703125 79.554688 140.464844 Z M 79.554688 140.464844 " fill-opacity="1" fill-rule="nonzero"/><path fill="#41362f" d="M 178.128906 81.355469 C 176.6875 97.574219 183.535156 113.792969 194.527344 125.867188 C 199.394531 131.09375 205.339844 135.777344 212.367188 137.398438 C 223 139.5625 233.992188 133.976562 241.742188 126.226562 C 257.058594 110.910156 263.1875 87.121094 257.058594 66.398438 C 253.996094 56.304688 248.050781 46.574219 238.859375 41.347656 C 212.546875 25.671875 180.289062 55.585938 178.128906 81.355469 Z M 178.128906 81.355469 " fill-opacity="1" fill-rule="nonzero"/><g clip-path="url(#9ee6c9face)"><path fill="#41362f" d="M 277.964844 167.675781 C 279.765625 172.179688 282.289062 176.503906 286.253906 179.386719 C 289.855469 182.089844 294.542969 183.351562 299.046875 183.894531 C 322.835938 186.777344 347.34375 168.757812 351.488281 145.148438 C 352.390625 139.742188 352.570312 134.15625 352.207031 128.75 C 351.667969 118.839844 350.046875 108.566406 344.28125 100.277344 C 330.585938 80.632812 304.632812 79.734375 290.21875 97.394531 C 274.71875 116.316406 268.414062 144.609375 277.964844 167.675781 Z M 277.964844 167.675781 " fill-opacity="1" fill-rule="nonzero"/></g></svg>